<svg width="111" height="98" viewBox="0 0 111 98" fill="none" xmlns="http://www.w3.org/2000/svg">
<path d="M4 4C4 1.79086 5.79086 0 8 0H32.5C37.6765 0 42.3753 3.0256 44.5173 7.73811L46 11H4V4Z" fill="#FBBC19"/>
<path d="M4 9C4 8.44772 4.44772 8 5 8H98C102.971 8 107 12.0294 107 17V86C107 90.9706 102.971 95 98 95H13C8.02944 95 4 90.9706 4 86V9Z" fill="#FBBC19"/>
<g filter="url(#filter0_d_434_5)">
<path d="M4 17.5C4 16.9477 4.44772 16.5 5 16.5H30.4985C34.4336 16.5 38.3029 15.4904 41.7364 13.5676L43.9913 12.3049C47.2755 10.4657 50.9765 9.5 54.7406 9.5H98C102.971 9.5 107 13.5294 107 18.5V86C107 90.9706 102.971 95 98 95H13C8.02944 95 4 90.9706 4 86V17.5Z" fill="#FFE086"/>
</g>
<defs>
<filter id="filter0_d_434_5" x="0" y="4.5" width="111" height="93.5" filterUnits="userSpaceOnUse" color-interpolation-filters="sRGB">
<feFlood flood-opacity="0" result="BackgroundImageFix"/>
<feColorMatrix in="SourceAlpha" type="matrix" values="0 0 0 0 0 0 0 0 0 0 0 0 0 0 0 0 0 0 127 0" result="hardAlpha"/>
<feOffset dy="-1"/>
<feGaussianBlur stdDeviation="2"/>
<feComposite in2="hardAlpha" operator="out"/>
<feColorMatrix type="matrix" values="0 0 0 0 0 0 0 0 0 0 0 0 0 0 0 0 0 0 0.25 0"/>
<feBlend mode="normal" in2="BackgroundImageFix" result="effect1_dropShadow_434_5"/>
<feBlend mode="normal" in="SourceGraphic" in2="effect1_dropShadow_434_5" result="shape"/>
</filter>
</defs>
</svg>
