<svg width="384" height="720" viewBox="0 0 384 720" fill="none" xmlns="http://www.w3.org/2000/svg">
<path d="M297.913 54.7826L308.508 62.3681C328.239 76.4944 354.822 76.3057 374.35 61.9007L384 54.7826V657.391L374.35 650.273C354.822 635.868 328.239 635.68 308.508 649.806L297.913 657.391V54.7826Z" fill="#625F5F"/>
<path d="M0.521729 54.7826L11.1165 62.3681C30.8472 76.4944 57.431 76.3057 76.9591 61.9007L86.6087 54.7826V657.391L76.9591 650.273C57.431 635.868 30.8472 635.68 11.1165 649.806L0.521729 657.391V54.7826Z" fill="#625F5F"/>
<path d="M151.415 0L156.159 4.1863C177.566 23.0748 209.755 22.836 230.88 3.63202L234.875 0V720L230.88 716.368C209.755 697.164 177.566 696.925 156.159 715.814L151.415 720V0Z" fill="#625F5F"/>
<path d="M117.836 362.827C118.305 362.015 119.477 362.015 119.946 362.827L135.919 390.494C138.898 395.653 133.767 401.702 128.191 399.606V399.606C122.196 397.351 115.586 397.351 109.591 399.606V399.606C104.015 401.702 98.8838 395.653 101.862 390.494L105.945 383.422L117.836 362.827Z" fill="#625F5F"/>
<path fill-rule="evenodd" clip-rule="evenodd" d="M245.783 364.391C247.486 362.689 250.246 362.689 251.949 364.391L283.484 395.926C285.187 397.629 285.187 400.39 283.484 402.092C281.782 403.795 279.021 403.795 277.319 402.092L245.783 370.557C244.081 368.854 244.081 366.094 245.783 364.391Z" fill="#625F5F"/>
</svg>
