<?xml version="1.0" encoding="UTF-8"?>
<svg xmlns="http://www.w3.org/2000/svg" viewBox="0 0 383.48 720">
  <defs>
    <style>
      .cls-1, .cls-2 {
        fill: #fff;
      }

      .cls-2 {
        fill-rule: evenodd;
      }
    </style>
  </defs>
  <g id="right_side" data-name="right side">
    <path class="cls-1" d="M297.39,54.78l10.6,7.59c19.73,14.13,46.31,13.94,65.84-.47l9.65-7.12V657.39l-9.65-7.12c-19.53-14.41-46.11-14.59-65.84-.47l-10.6,7.58V54.78Z"/>
  </g>
  <g id="left_side" data-name="left side">
    <path class="cls-1" d="M0,54.78l10.59,7.59c19.73,14.13,46.31,13.94,65.84-.47l9.65-7.12V657.39l-9.65-7.12c-19.53-14.41-46.11-14.59-65.84-.47l-10.59,7.58V54.78Z"/>
  </g>
  <g id="middle">
    <path class="cls-1" d="M150.89,0l4.74,4.19c21.41,18.89,53.6,18.65,74.72-.55l3.99-3.63V720l-3.99-3.63c-21.12-19.2-53.31-19.44-74.72-.55l-4.74,4.19V0Z"/>
  </g>
  <g id="line">
    <path class="cls-2" d="M245.26,364.39c1.7-1.7,4.46-1.7,6.17,0l31.54,31.54c1.7,1.7,1.7,4.46,0,6.17-1.7,1.7-4.46,1.7-6.17,0l-31.54-31.54c-1.7-1.7-1.7-4.46,0-6.17Z"/>
  </g>
  <g id="heart">
    <path class="cls-1" d="M117.31,362.83c.47-.81,1.64-.81,2.11,0l15.97,27.67c2.98,5.16-2.15,11.21-7.73,9.11h0c-5.99-2.25-12.6-2.25-18.6,0h0c-5.58,2.1-10.71-3.95-7.73-9.11l4.08-7.07,11.89-20.6Z"/>
  </g>
</svg>